Coordinates
version=1
nRows=16
nColumns=36
inDegrees=yes

Units are S.I. units (second, meters, Newtons, ...)
If the header above contains a line with 'inDegrees', this indicates whether rotational values are in degrees (yes) or radians (no).

endheader
time	pelvis_tilt	pelvis_list	pelvis_rotation	pelvis_tx	pelvis_ty	pelvis_tz	hip_flexion_r	hip_adduction_r	hip_rotation_r	knee_angle_r	knee_angle_r_beta	ankle_angle_r	subtalar_angle_r	mtp_angle_r	hip_flexion_l	hip_adduction_l	hip_rotation_l	knee_angle_l	knee_angle_l_beta	ankle_angle_l	subtalar_angle_l	mtp_angle_l	lumbar_extension	lumbar_bending	lumbar_rotation	arm_flex_r	arm_add_r	arm_rot_r	elbow_flex_r	pro_sup_r	arm_flex_l	arm_add_l	arm_rot_l	elbow_flex_l	pro_sup_l
      3.50000000	    -31.50301674	     -2.62919425	      4.29950516	      1.58732476	      0.65999616	     -0.28926325	     88.11390648	     -4.00068413	      0.43394495	     92.82709066	      1.62013837	     41.81725370	      0.56322665	     -7.49999987	     86.84185136	    -13.06956481	     -1.01143246	     91.37048753	      1.59471585	     36.75494900	      0.24406800	     -7.49999987	    -15.18735127	     -4.37030632	      3.38377416	     54.21607446	     -6.21729580	     13.26491212	     92.24607122	     94.24428158	     49.25772536	    -15.96080491	     15.34669365	     89.47066677	     90.71954848
      3.51666670	    -31.91967015	     -2.56333885	      4.26769680	      1.58685670	      0.65611996	     -0.28793339	     89.61539688	     -4.28434167	      0.45828205	     94.68173308	      1.65250798	     42.47447537	      0.91673417	     -7.49999987	     88.24980142	    -13.18580208	     -0.95257864	     93.44525231	      1.63092732	     37.78312907	      0.80359143	     -7.49999987	    -16.45992377	     -4.49918596	      4.27821561	     53.80945584	     -5.96730492	     12.54519324	     94.68880244	     91.43137065	     50.40237747	    -13.79751903	     15.78957245	     90.14731077	     89.34138066
      3.53333330	    -32.29772762	     -2.44193748	      4.31411096	      1.58168282	      0.64905554	     -0.29090298	     90.88831262	     -4.59896602	      0.60252360	     96.07388237	      1.67680557	     42.48106520	      0.84519245	     -7.49999987	     89.33182654	    -13.10502904	     -0.97460922	     95.04648237	      1.65887406	     38.42728146	      0.77652143	     -7.49999987	    -17.55736761	     -4.84142205	      5.73124554	     52.60346340	     -7.12956771	     10.17350266	     97.56387270	     96.52758034	     52.08573921	    -10.33408892	     15.56264862	     90.13648558	    103.77984403
      3.55000000	    -32.72236672	     -2.38577768	      4.42908972	      1.57750410	      0.64480127	     -0.29239053	     92.11595012	     -5.06389796	      0.64666692	     97.01598945	      1.69324844	     42.41109085	      1.13912868	     -7.49999987	     90.47442211	    -12.94902175	     -0.96125324	     96.08777220	      1.67704800	     39.22382864	      1.15522310	     -7.49999987	    -18.21481382	     -4.63240423	      5.75892699	     52.53328221	     -7.23389087	     10.34793354	     98.05029441	     95.40350447	     52.57391587	     -9.42694069	     15.51793383	     91.15472555	    102.00247072
      3.56666670	    -33.13875937	     -2.41140038	      4.52952383	      1.57748032	      0.64364718	     -0.28768030	     93.04579552	     -5.35500617	      0.62913864	     97.49665312	      1.70163761	     42.09174498	      1.15447775	     -7.49999987	     91.42291088	    -12.80326702	     -0.87221270	     96.53270188	      1.68481348	     39.71063598	      1.17220269	     -7.49999987	    -18.65199180	     -4.51105357	      5.80227587	     51.79958660	     -7.31132432	      9.70413932	     99.18377138	     95.49323469	     52.25386519	     -9.15946066	     15.13250062	     92.13280006	    102.29120817
      3.58333330	    -33.31721506	     -2.37040210	      4.56936281	      1.58149572	      0.64449221	     -0.28970605	     93.23177280	     -5.52988767	      0.69204573	     97.58499766	      1.70317951	     41.94160260	      1.17979076	     -7.49999987	     91.51194181	    -12.64369168	     -0.87817198	     96.59567850	      1.68591263	     39.89280383	      1.31646496	     -7.49999987	    -18.76847071	     -4.41355899	      5.96328508	     50.70800940	     -7.66439808	      9.57106619	    100.64561676	     95.61784774	     51.36746356	     -8.83199036	     15.04994741	     93.59794123	    102.64816539
      3.60000000	    -33.40851755	     -2.29735822	      4.67736063	      1.57679985	      0.65335400	     -0.29372617	     92.86899527	     -5.86331898	      0.78009636	     96.93291276	      1.69179848	     41.56619958	      1.17754148	     -7.49999987	     90.99377978	    -12.29443323	     -1.03460580	     96.06345078	      1.67662351	     39.94861940	      1.59004809	     -7.49999987	    -19.24932686	     -4.35371943	      6.16686311	     50.25914836	     -8.55826304	      9.05363669	    101.33078647	     96.67825611	     51.20728899	     -8.04948457	     16.18790729	     94.06860262	    104.69871155
      3.61666670	    -33.34667719	     -2.23833633	      4.76775483	      1.58521757	      0.65582722	     -0.28799230	     92.02146477	     -6.06275454	      0.79496084	     96.09735159	      1.67721519	     41.31613918	      1.22769609	     -7.49999987	     89.93662123	    -12.04477663	     -1.17787889	     95.16333496	      1.66091352	     40.02879336	      1.95829088	     -7.49999987	    -19.05098925	     -4.37029035	      5.99893941	     48.69762595	     -8.29399757	      8.85713856	    102.27094280	     96.69776233	     49.39612447	     -8.40735351	     16.62192258	     95.05809438	    104.70136912
      3.63333330	    -33.44387062	     -2.25849846	      4.79141836	      1.58025219	      0.65968562	     -0.29113917	     91.24944998	     -6.20930274	      0.73212185	     94.93395135	      1.65691002	     41.13526687	      1.35377640	     -7.49999987	     89.06954321	    -11.92605694	     -1.35877675	     94.02948632	      1.64112413	     39.96490632	      2.16169127	     -7.49999987	    -18.15514303	     -4.22375895	      5.81848934	     48.55324639	     -8.29901536	      8.92620143	    102.54985796	     96.71028436	     48.88009295	     -8.36244536	     16.86278643	     95.08114419	    104.70887338
      3.65000000	    -33.46950148	     -2.15777694	      4.93702232	      1.57627543	      0.66236270	     -0.29360327	     90.58297503	     -6.56375529	      0.70176021	     93.90996589	      1.63903811	     40.51966659	      1.39007306	     -7.49999987	     88.25469472	    -11.70293259	     -1.70436906	     92.97710304	      1.62275658	     39.68974934	      2.46860823	     -7.49999987	    -17.18939460	     -3.98868186	      5.55232580	     48.25706616	     -8.77494822	      9.07941644	    102.84562296	     96.74578360	     48.73654816	     -8.49872516	     17.03083422	     95.29010453	    104.69577252
      3.66666670	    -33.28406129	     -2.09369063	      4.98689211	      1.58521694	      0.68099128	     -0.28833316	     89.10477529	     -6.69732927	      0.51733314	     92.07957943	      1.60709183	     39.99180282	      1.31451123	     -7.49999987	     86.75742970	    -11.51173426	     -1.88515866	     90.94414410	      1.58727475	     39.59674349	      2.67460601	     -7.49999987	    -16.60242851	     -4.06304485	      5.60626999	     47.02490404	     -8.65737446	      9.62116343	    103.07977688	     95.37415959	     47.45170447	     -9.10354177	     17.09432279	     94.99200720	    102.69623576
      3.68333330	    -33.38073943	     -2.13780511	      4.97046847	      1.58142001	      0.69042601	     -0.28594072	     87.91833518	     -6.72764626	      0.26052713	     90.10237385	      1.57258309	     39.34511155	      1.42559727	     -7.49999987	     85.63666554	    -11.54363111	     -2.11824925	     88.74255954	      1.54884985	     39.03593613	      2.92763325	     -7.49999987	    -15.67642163	     -4.05259455	      5.68319793	     46.67128661	     -8.67490850	      9.75768690	    103.03614485	     95.44285633	     47.17520675	     -9.27260241	     17.15068074	     94.98519493	    102.72917461
      3.70000000	    -33.24594349	     -1.98016550	      4.88267192	      1.57698815	      0.69746911	     -0.29373846	     86.71477213	     -6.77704724	      0.19117739	     88.20544122	      1.53947537	     38.29123525	      0.98619920	     -7.49999987	     84.31067122	    -11.46288376	     -2.49145706	     86.67428277	      1.51275161	     38.17201988	      2.78055461	     -7.49999987	    -14.69186364	     -4.01986465	      5.65191242	     46.40663549	     -9.17928076	      9.74305419	    102.57508700	     95.61086901	     46.71173990	     -8.84038192	     16.73231540	     94.99895917	    102.80258929
      3.71666670	    -33.05932380	     -1.79294169	      4.77003160	      1.57762039	      0.71314002	     -0.29436519	     85.10875106	     -6.80070646	      0.16255568	     85.74883823	      1.49659956	     37.11197552	      0.31490156	     -7.49999987	     82.51857100	    -11.19893465	     -2.89569581	     84.22593937	      1.47001996	     36.97576102	      2.38062680	     -7.49999987	    -14.08227348	     -3.87820972	      5.62564001	     46.53987456	     -9.42429164	     10.08115250	    101.32093692	     94.11894094	     45.76260711	     -8.37128085	     15.56145352	     94.04092844	    101.18081819
      3.73333330	    -32.79162812	     -1.75169121	      4.66767633	      1.57782308	      0.73034726	     -0.28808225	     83.12357439	     -6.70637993	     -0.09798871	     82.78415373	      1.44485605	     35.71476146	      0.03468221	     -7.49999987	     80.47435278	    -10.99903756	     -3.11894954	     81.25216267	      1.41811776	     35.81654186	      2.23658879	     -7.49999987	    -13.68305309	     -3.90225248	      5.66425239	     46.13999634	     -9.12149021	      9.85021080	    100.40367437	     98.58568816	     44.87515129	     -8.68361783	     14.83422698	     93.41370423	    104.83303318
      3.75000000	    -32.82464534	     -1.65048819	      4.53413934	      1.56997442	      0.73576339	     -0.29191420	     81.79621293	     -6.59464596	     -0.15897961	     80.14100736	      1.39872444	     34.22976567	     -0.35210536	     -7.49999987	     78.98636563	    -10.82600435	     -3.43427234	     78.55523174	      1.37104744	     34.53737206	      2.03805493	     -7.49999987	    -12.67846088	     -3.88923059	      5.58711650	     45.75925843	     -9.33167491	      9.94468560	    100.18173951	     98.65857943	     44.55802249	     -8.73539348	     14.64183940	     93.02095984	    104.79172713
